<?xml version="1.0" encoding="utf-8"?>
<!-- Generator: Adobe Illustrator 23.1.1, SVG Export Plug-In . SVG Version: 6.00 Build 0)  -->
<svg version="1.1" id="Calque_1" xmlns="http://www.w3.org/2000/svg" xmlns:xlink="http://www.w3.org/1999/xlink" x="0px" y="0px"
	 viewBox="0 0 860.2 116.4" style="enable-background:new 0 0 860.2 116.4;" xml:space="preserve">
<style type="text/css">
	.st0{fill:#292996;}
</style>
<g>
	<path class="st0" d="M62.4,58.6c-1.2-2.9-2.2-5.5-3.2-7.9c-1-2.4-1.9-4.5-2.6-6.3c-0.8-1.8-1.3-3.2-1.7-4.2c-0.1-0.2-0.3-0.8-0.6-2
		c-0.3-1.1-0.6-2.2-0.8-3.1c-0.2,0.9-0.5,2-0.8,3.1c-0.4,1.1-0.6,1.8-0.7,2l-28.7,69.5H8.1L53.5,3c0.6,1.3,1.6,3.7,3,7.2
		c1.5,3.5,3.2,7.6,5.2,12.4c2,4.8,4.3,10.2,6.8,16c2.5,5.9,5,11.8,7.6,17.8c2.6,6,5.1,11.9,7.6,17.7c2.5,5.8,4.8,11.2,6.8,16
		c2.1,4.9,3.8,9,5.3,12.4c1.5,3.4,2.5,5.8,3,7.1H83.6c-0.5-1-1.1-2.5-2-4.5c-0.8-2-1.8-4.2-2.9-6.8c-1.1-2.6-2.2-5.4-3.5-8.4
		C73.9,86.9,63.6,61.5,62.4,58.6z"/>
	<path class="st0" d="M121.3,109.7V7.8h27.8c5.3,0,10.2,0.7,14.7,2.1c4.5,1.4,8.3,3.5,11.5,6.3c3.2,2.8,5.7,6.1,7.5,10.1
		c1.8,4,2.7,8.6,2.7,13.7c0,2.8-0.3,5.6-0.8,8.4c-0.6,2.8-1.5,5.4-2.7,8c-1.3,2.6-2.9,5-4.9,7.2c-2,2.2-4.4,4.1-7.2,5.6
		c3.7,5.9,7.8,12.4,12.2,19.6c4.4,7.2,8.9,14.2,13.4,21h-18.4c-1.9-2.9-3.8-6-5.8-9.1c-2-3.2-4-6.3-6-9.5c-2-3.1-4-6.2-5.9-9.3
		c-1.9-3-3.7-5.9-5.4-8.5h-2.8h-14.3v36.4H121.3z M136.7,58.8h13.9c3.7,0,6.9-0.6,9.4-1.9c2.5-1.3,4.5-2.8,6-4.7
		c1.5-1.9,2.5-3.9,3.1-6c0.6-2.2,0.9-4.1,0.9-5.9c0-1.8-0.3-3.7-0.9-5.8c-0.6-2.1-1.7-4.1-3.2-5.9c-1.5-1.8-3.5-3.4-6-4.6
		c-2.5-1.2-5.6-1.8-9.2-1.8h-14.1V58.8z"/>
	<path class="st0" d="M277.7,13.4l-5.5,12.5c-3.8-1.4-7.7-2.5-11.5-3.4c-3.8-0.8-7.4-1.3-10.9-1.3c-5.9,0-10.6,1.2-14.1,3.7
		c-3.5,2.4-5.3,5.5-5.3,9.3c0,3.2,1.3,5.7,3.8,7.7c2.5,1.9,5.7,3.7,9.4,5.2c3.7,1.5,7.8,3.1,12.2,4.6c4.4,1.5,8.5,3.5,12.2,6
		c3.7,2.4,6.9,5.5,9.4,9.2c2.5,3.7,3.8,8.5,3.8,14.3c0,4.5-0.8,8.6-2.5,12.2c-1.6,3.6-4.1,6.7-7.3,9.4c-3.2,2.6-7.3,4.6-12.1,6
		c-4.8,1.4-10.5,2.1-16.9,2.1c-4.1,0-7.9-0.3-11.2-0.8c-3.3-0.6-6.3-1.3-9-2.2c-2.7-0.9-5-1.8-7-2.9c-2-1-3.7-2-5.1-2.8l6.7-13.4
		c3.7,2.2,7.9,3.9,12.5,5.2c4.6,1.3,8.8,2,12.5,2c1.9,0,4.2-0.2,7-0.7c2.8-0.5,5.4-1.3,7.9-2.5c2.5-1.2,4.7-2.7,6.5-4.7
		c1.8-2,2.7-4.5,2.7-7.5c0-2.7-0.7-5-2.2-7c-1.5-1.9-3.4-3.6-5.8-5.1c-2.4-1.5-5.1-2.8-8.2-3.9c-3-1.2-6.2-2.4-9.4-3.7
		c-3.2-1.3-6.3-2.6-9.4-4c-3-1.4-5.8-3.1-8.2-5.1c-2.4-2-4.3-4.4-5.8-7c-1.5-2.7-2.2-5.9-2.2-9.6c0-3.5,0.7-6.9,2.1-10.3
		c1.4-3.4,3.5-6.4,6.3-9c2.8-2.6,6.3-4.7,10.5-6.3c4.2-1.6,9-2.4,14.6-2.4c3.4,0,6.7,0.3,9.9,0.8c3.2,0.6,6.2,1.2,8.8,1.9
		c2.6,0.7,4.8,1.4,6.7,2C276,12.7,277.2,13.1,277.7,13.4z"/>
	<path d="M350.9,109.7V7.8h27.8c5.3,0,10.2,0.7,14.7,2.1c4.5,1.4,8.3,3.5,11.5,6.3c3.2,2.8,5.7,6.1,7.5,10.1c1.8,4,2.7,8.6,2.7,13.7
		c0,4-0.6,8-1.8,12c-1.2,4-3.2,7.5-5.9,10.7c-2.7,3.1-6.3,5.7-10.7,7.7c-4.4,2-9.7,3-16,3h-14.3v36.4H350.9z M366.3,58.8h13.9
		c3.7,0,6.9-0.7,9.4-2c2.5-1.3,4.5-2.9,6-4.8c1.5-1.9,2.5-3.9,3.1-6c0.6-2.2,0.9-4.1,0.9-5.8c0-1.8-0.3-3.7-0.9-5.8
		c-0.6-2.1-1.7-4.1-3.2-5.9c-1.5-1.8-3.5-3.4-6-4.6c-2.5-1.2-5.6-1.8-9.2-1.8h-14.1V58.8z"/>
	<path d="M441.8,109.7V7.8h27.8c5.3,0,10.2,0.7,14.7,2.1c4.5,1.4,8.3,3.5,11.5,6.3c3.2,2.8,5.7,6.1,7.5,10.1c1.8,4,2.7,8.6,2.7,13.7
		c0,2.8-0.3,5.6-0.8,8.4c-0.6,2.8-1.5,5.4-2.7,8c-1.3,2.6-2.9,5-4.9,7.2c-2,2.2-4.4,4.1-7.2,5.6c3.7,5.9,7.8,12.4,12.2,19.6
		c4.4,7.2,8.9,14.2,13.4,21h-18.4c-1.9-2.9-3.8-6-5.8-9.1c-2-3.2-4-6.3-6-9.5c-2-3.1-4-6.2-5.9-9.3c-1.9-3-3.7-5.9-5.4-8.5h-2.8
		h-14.3v36.4H441.8z M457.3,58.8h13.9c3.8,0,6.9-0.6,9.4-1.9c2.5-1.3,4.5-2.8,6-4.7c1.5-1.9,2.5-3.9,3.1-6c0.6-2.2,0.9-4.1,0.9-5.9
		c0-1.8-0.3-3.7-0.9-5.8c-0.6-2.1-1.7-4.1-3.2-5.9c-1.5-1.8-3.5-3.4-6-4.6c-2.5-1.2-5.6-1.8-9.2-1.8h-14.1V58.8z"/>
	<path d="M581.9,58.6c-1.2-2.9-2.2-5.5-3.2-7.9c-1-2.4-1.9-4.5-2.6-6.3c-0.8-1.8-1.3-3.2-1.7-4.2c-0.1-0.2-0.3-0.8-0.6-2
		c-0.3-1.1-0.6-2.2-0.8-3.1c-0.2,0.9-0.5,2-0.8,3.1c-0.4,1.1-0.6,1.8-0.7,2l-28.7,69.5h-15.2L573,3c0.6,1.3,1.6,3.7,3,7.2
		c1.5,3.5,3.2,7.6,5.2,12.4c2,4.8,4.3,10.2,6.7,16c2.5,5.9,5,11.8,7.6,17.8c2.6,6,5.1,11.9,7.6,17.7c2.5,5.8,4.8,11.2,6.8,16
		c2.1,4.9,3.8,9,5.3,12.4c1.5,3.4,2.5,5.8,3,7.1h-15.2c-0.5-1-1.1-2.5-2-4.5c-0.8-2-1.8-4.2-2.9-6.8c-1.1-2.6-2.2-5.4-3.5-8.4
		C593.5,86.9,583.1,61.5,581.9,58.6z"/>
	<path d="M662.6,57.6L630.7,7.8h18.8c0.5,0.8,1.3,2,2.4,3.8c1.1,1.8,2.4,3.8,3.8,6.1c1.4,2.3,2.9,4.7,4.5,7.3c1.6,2.6,3.1,5,4.5,7.3
		c1.4,2.3,2.6,4.3,3.7,6.1c1.1,1.8,1.8,3,2.3,3.8c0.1,0.2,0.4,0.8,1,1.9c0.6,1.1,1,2,1.3,2.9c0.3-0.8,0.7-1.8,1.3-2.9
		c0.6-1.1,0.9-1.7,1-1.9c0.5-0.7,1.2-2,2.3-3.8c1.1-1.8,2.3-3.8,3.7-6.1c1.4-2.3,2.8-4.7,4.3-7.3c1.5-2.6,2.9-5,4.3-7.3
		c1.4-2.3,2.6-4.3,3.7-6.1c1.1-1.8,1.8-3,2.3-3.8h18.8c-0.6,0.8-1.6,2.6-3.2,5.1c-1.6,2.6-3.5,5.6-5.7,9.1c-2.2,3.5-4.5,7.2-7,11.1
		c-2.4,3.9-4.8,7.6-7,11.1c-2.2,3.5-4.1,6.5-5.8,9.1c-1.6,2.6-2.7,4.3-3.2,5.1l33.2,51.3h-19.1l-20.8-33.5c-0.2-0.3-0.5-0.7-0.8-1.3
		c-0.4-0.6-0.8-1.2-1.1-1.9c-0.4-0.7-0.8-1.4-1.1-2c-0.4-0.7-0.7-1.2-0.8-1.5c-0.3,0.8-0.7,1.7-1.1,2.7c-0.5,0.9-0.8,1.5-0.8,1.5
		c-0.8,1.2-2.2,3.5-4.3,7c-2.1,3.4-4.3,7.1-6.6,11c-2.3,3.9-4.5,7.6-6.6,11c-2.1,3.4-3.5,5.7-4.3,7h-19.1L662.6,57.6z"/>
	<path d="M739.4,7.8h15.3v101.9h-15.3V7.8z"/>
	<path d="M847.9,13.4l-5.5,12.5c-3.8-1.4-7.7-2.5-11.5-3.4c-3.8-0.8-7.4-1.3-10.9-1.3c-5.9,0-10.6,1.2-14.1,3.7
		c-3.5,2.4-5.3,5.5-5.3,9.3c0,3.2,1.3,5.7,3.8,7.7c2.5,1.9,5.7,3.7,9.4,5.2c3.8,1.5,7.8,3.1,12.2,4.6c4.4,1.5,8.5,3.5,12.2,6
		c3.7,2.4,6.9,5.5,9.4,9.2c2.5,3.7,3.8,8.5,3.8,14.3c0,4.5-0.8,8.6-2.5,12.2c-1.6,3.6-4.1,6.7-7.3,9.4c-3.2,2.6-7.3,4.6-12.1,6
		c-4.8,1.4-10.5,2.1-16.9,2.1c-4.1,0-7.9-0.3-11.2-0.8c-3.3-0.6-6.3-1.3-9-2.2c-2.7-0.9-5-1.8-7-2.9c-2-1-3.7-2-5.1-2.8l6.7-13.4
		c3.7,2.2,7.9,3.9,12.5,5.2c4.6,1.3,8.8,2,12.5,2c1.9,0,4.2-0.2,7-0.7c2.8-0.5,5.4-1.3,7.9-2.5c2.5-1.2,4.7-2.7,6.5-4.7
		c1.8-2,2.7-4.5,2.7-7.5c0-2.7-0.7-5-2.2-7c-1.5-1.9-3.4-3.6-5.8-5.1c-2.4-1.5-5.1-2.8-8.2-3.9c-3-1.2-6.2-2.4-9.4-3.7
		c-3.2-1.3-6.3-2.6-9.4-4c-3-1.4-5.8-3.1-8.2-5.1c-2.4-2-4.3-4.4-5.8-7c-1.5-2.7-2.2-5.9-2.2-9.6c0-3.5,0.7-6.9,2.1-10.3
		c1.4-3.4,3.5-6.4,6.3-9c2.8-2.6,6.3-4.7,10.5-6.3c4.2-1.6,9-2.4,14.6-2.4c3.4,0,6.7,0.3,9.9,0.8c3.2,0.6,6.2,1.2,8.8,1.9
		c2.6,0.7,4.9,1.4,6.7,2C846.1,12.7,847.3,13.1,847.9,13.4z"/>
</g>
</svg>
