<?xml version="1.0" encoding="utf-8"?>
<!-- Generator: Adobe Illustrator 23.0.4, SVG Export Plug-In . SVG Version: 6.00 Build 0)  -->
<svg version="1.1" id="Calque_1" xmlns="http://www.w3.org/2000/svg" xmlns:xlink="http://www.w3.org/1999/xlink" x="0px" y="0px"
	 viewBox="0 0 860.2 163.7" style="enable-background:new 0 0 860.2 163.7;" xml:space="preserve">
<style type="text/css">
	.st0{fill:#292996;}
</style>
<g>
	<path class="st0" d="M0,162V7.3h42.2c8.1,0,15.5,1.1,22.3,3.2S77.1,15.8,82,20s8.7,9.3,11.4,15.4c2.7,6,4.1,13,4.1,20.8
		c0,6.1-0.9,12.2-2.8,18.2s-4.8,11.5-9,16.2c-4.1,4.8-9.5,8.6-16.2,11.6s-14.8,4.5-24.3,4.5H23.5V162H0z M23.5,84.7h21.1
		c5.7,0,10.5-1,14.3-3s6.9-4.4,9.1-7.3c2.2-2.8,3.8-5.9,4.7-9.2c0.9-3.3,1.4-6.2,1.4-8.8c0-2.7-0.5-5.6-1.4-8.9
		c-0.9-3.2-2.5-6.2-4.8-9s-5.3-5.1-9.1-6.9c-3.8-1.9-8.4-2.8-14-2.8H23.5V84.7L23.5,84.7z"/>
	<path class="st0" d="M135.5,162V7.3h42.2c8.1,0,15.5,1.1,22.3,3.2s12.6,5.3,17.5,9.5s8.7,9.3,11.4,15.4c2.7,6,4.1,13,4.1,20.8
		c0,4.3-0.4,8.5-1.3,12.7c-0.9,4.2-2.2,8.2-4.2,12.2c-1.9,3.9-4.4,7.5-7.4,10.9s-6.6,6.2-10.9,8.4c5.7,9,11.9,18.9,18.6,29.8
		c6.7,10.9,13.5,21.5,20.3,31.9h-28c-2.9-4.4-5.8-9-8.9-13.9c-3.1-4.8-6.1-9.6-9.2-14.4c-3.1-4.8-6-9.5-9-14.1
		c-2.9-4.6-5.6-8.9-8.2-12.9h-4.3h-21.8V162H135.5z M158.9,84.7H180c5.7,0,10.5-1,14.3-2.9s6.9-4.3,9.1-7.1c2.2-2.8,3.8-5.9,4.7-9.2
		c0.9-3.3,1.4-6.3,1.4-9s-0.5-5.6-1.4-8.9c-0.9-3.2-2.5-6.2-4.8-9s-5.3-5.1-9.1-6.9c-3.8-1.9-8.4-2.8-14-2.8h-21.3V84.7z"/>
	<path class="st0" d="M363.5,84.4c-1.8-4.3-3.4-8.3-4.9-12c-1.5-3.6-2.8-6.8-4-9.5c-1.1-2.7-2-4.8-2.6-6.4c-0.1-0.3-0.5-1.3-1-3
		s-0.9-3.3-1.2-4.7c-0.3,1.4-0.7,3-1.3,4.7c-0.6,1.7-0.9,2.7-1.1,3L304.1,162h-23L350,0c0.8,2,2.4,5.6,4.6,10.9s4.8,11.6,7.9,18.9
		s6.5,15.4,10.2,24.3c3.8,8.9,7.6,17.9,11.5,27s7.8,18.1,11.5,26.9c3.8,8.8,7.2,16.9,10.3,24.3c3.1,7.4,5.8,13.7,8,18.9
		s3.7,8.8,4.6,10.8h-23c-0.7-1.6-1.7-3.8-3-6.8s-2.7-6.4-4.4-10.4s-3.4-8.2-5.3-12.8C381,127.4,365.3,88.7,363.5,84.4z"/>
	<path class="st0" d="M492.3,82.8L443.9,7.3h28.6c0.7,1.1,1.9,3.1,3.6,5.8s3.6,5.8,5.8,9.3c2.1,3.5,4.4,7.2,6.8,11.1
		s4.7,7.6,6.8,11.1c2.1,3.5,4,6.6,5.7,9.3c1.6,2.7,2.8,4.6,3.5,5.8c0.1,0.3,0.6,1.2,1.5,2.9c0.9,1.6,1.5,3.1,1.9,4.4
		c0.4-1.3,1.1-2.7,1.9-4.4s1.3-2.6,1.5-2.9c0.7-1.1,1.9-3.1,3.5-5.8c1.6-2.7,3.5-5.8,5.5-9.3c2.1-3.5,4.2-7.2,6.5-11.1
		s4.4-7.6,6.5-11.1s3.9-6.6,5.5-9.3s2.8-4.6,3.5-5.8h28.6c-0.8,1.3-2.5,3.9-4.9,7.8s-5.3,8.5-8.6,13.8s-6.9,10.9-10.6,16.9
		c-3.7,6-7.2,11.6-10.6,16.9c-3.3,5.3-6.3,9.9-8.8,13.8s-4.1,6.5-4.8,7.8l50.4,77.9h-29l-31.6-50.8c-0.3-0.4-0.7-1.1-1.3-1.9
		s-1.1-1.8-1.7-2.9s-1.1-2.1-1.7-3.1s-1-1.8-1.3-2.4c-0.4,1.3-1,2.6-1.7,4.1c-0.7,1.4-1.1,2.2-1.3,2.4c-1.1,1.9-3.3,5.4-6.5,10.6
		s-6.5,10.8-10,16.8s-6.8,11.6-10,16.8s-5.4,8.7-6.5,10.6h-29L492.3,82.8z"/>
	<path d="M683.5,7.3h23.3V162h-23.3V7.3z"/>
	<path d="M854.7,15.8l-8.3,19c-5.8-2.1-11.6-3.8-17.4-5.1s-11.3-1.9-16.5-1.9c-9,0-16.1,1.9-21.5,5.5c-5.3,3.7-8,8.4-8,14.1
		c0,4.8,1.9,8.7,5.8,11.6c3.8,2.9,8.6,5.5,14.3,7.9s11.9,4.7,18.6,7s12.9,5.4,18.6,9.1c5.7,3.7,10.5,8.4,14.3,14s5.8,12.8,5.8,21.7
		c0,6.8-1.2,13-3.7,18.5s-6.2,10.2-11.1,14.2c-4.9,4-11,7-18.3,9.2c-7.3,2.1-15.9,3.2-25.7,3.2c-6.3,0-11.9-0.4-17-1.3
		c-5-0.9-9.6-2-13.7-3.3c-4-1.4-7.6-2.8-10.7-4.4s-5.7-3-7.8-4.3l10.2-20.3c5.7,3.3,12,5.9,19,7.9s13.3,3,19,3
		c2.8,0,6.4-0.4,10.6-1.1c4.2-0.7,8.2-2,12.1-3.7c3.8-1.8,7.2-4.2,9.9-7.1s4.2-6.8,4.2-11.3c0-4.1-1.1-7.6-3.3-10.6
		c-2.2-2.9-5.1-5.5-8.8-7.7s-7.8-4.2-12.4-6s-9.4-3.6-14.2-5.5s-9.6-4-14.2-6.1c-4.6-2.1-8.8-4.7-12.4-7.8s-6.5-6.6-8.8-10.7
		c-2.2-4-3.3-8.9-3.3-14.6c0-5.3,1.1-10.5,3.2-15.6c2.1-5.1,5.3-9.7,9.6-13.7s9.6-7.2,15.9-9.6s13.7-3.6,22.1-3.6
		c5.1,0,10.1,0.4,15.1,1.3s9.3,1.8,13.3,2.9s7.4,2.1,10.1,3.1C852,14.7,853.8,15.4,854.7,15.8z"/>
</g>
<path d="M594.8,84c0-3.4,1.2-6.3,3.7-8.6c2.5-2.4,5.3-3.5,8.4-3.5c2.8,0,5.5,1.2,8,3.5c2.5,2.4,3.7,5.2,3.7,8.6
	c0,3.7-1.2,6.6-3.7,8.8c-2.5,2.1-5.2,3.2-8,3.2c-3.1,0-5.9-1.1-8.4-3.2C596,90.6,594.8,87.7,594.8,84z"/>
</svg>
